<svg xmlns="http://www.w3.org/2000/svg" width="40" height="40" viewBox="0 0 40 40"><defs><linearGradient id="cdppa" x1="9.44" x2="31.06" y1="36.63" y2="3.58" gradientUnits="userSpaceOnUse"><stop offset="0" stop-color="#ffc148"/><stop offset=".3" stop-color="#c74c4d"/><stop offset=".6" stop-color="#c21975"/><stop offset="1" stop-color="#7024c4"/></linearGradient></defs><g><g><path fill="url(#cdppa)" d="M30.735 25.322a5.42 5.42 0 0 1-5.413 5.413H14.688a5.42 5.42 0 0 1-5.413-5.413V14.688a5.42 5.42 0 0 1 5.413-5.413h10.634a5.42 5.42 0 0 1 5.413 5.413zM23.19 20c0 1.759-1.431 3.19-3.19 3.19A3.195 3.195 0 0 1 16.81 20 3.194 3.194 0 0 1 20 16.81c1.759 0 3.19 1.431 3.19 3.19zm2.124-8.39H14.686a3.08 3.08 0 0 0-3.077 3.076v10.628a3.08 3.08 0 0 0 3.077 3.077h10.628a3.08 3.08 0 0 0 3.077-3.077V14.686a3.08 3.08 0 0 0-3.077-3.077zM20 40c11.046 0 20-8.954 20-20S31.046 0 20 0 0 8.954 0 20s8.954 20 20 20z"/></g></g></svg>