<?xml version="1.0" encoding="UTF-8"?>
<svg width="40px" height="40px" viewBox="0 0 40 40" version="1.1" xmlns="http://www.w3.org/2000/svg" xmlns:xlink="http://www.w3.org/1999/xlink">
    <title>instagram</title>
    <defs>
        <linearGradient x1="23.5888672%" y1="91.5771484%" x2="77.6383464%" y2="8.9453125%" id="linearGradient-1">
            <stop stop-color="#FFC148" offset="0%"></stop>
            <stop stop-color="#C74C4D" offset="30%"></stop>
            <stop stop-color="#C21975" offset="60%"></stop>
            <stop stop-color="#7024C4" offset="100%"></stop>
        </linearGradient>
    </defs>
    <g id="Single-Jewelry" stroke="none" stroke-width="1" fill="none" fill-rule="evenodd">
        <g id="Taka-Single_360-Menu" transform="translate(-16.000000, -585.000000)" fill="url(#linearGradient-1)" fill-rule="nonzero">
            <path d="M36,625 C47.045695,625 56,616.045695 56,605 C56,593.954305 47.045695,585 36,585 C24.954305,585 16,593.954305 16,605 C16,616.045695 24.954305,625 36,625 Z M41.3141549,596.609062 L30.6858451,596.609062 C28.9894264,596.609062 27.6090624,597.989426 27.6090624,599.685845 L27.6090624,610.314155 C27.6090624,612.010574 28.9894264,613.390938 30.6858451,613.390938 L41.3141549,613.390938 C43.0105736,613.390938 44.3909376,612.010574 44.3909376,610.314155 L44.3909376,599.685845 C44.3909376,597.989426 43.0105736,596.609062 41.3141549,596.609062 Z M35.999648,610.524623 C32.9538373,610.524623 30.4753766,608.046163 30.4753766,604.999648 C30.4753766,601.953837 32.9538373,599.475377 35.999648,599.475377 C39.0461627,599.475377 41.5246234,601.953837 41.5246234,604.999648 C41.5246234,608.046163 39.0461627,610.524623 35.999648,610.524623 Z M41.7020083,600.61782 C40.9812063,600.61782 40.3948508,600.031464 40.3948508,599.310662 C40.3948508,598.58986 40.9812063,598.003505 41.7020083,598.003505 C42.4228103,598.003505 43.0091658,598.58986 43.0091658,599.310662 C43.0091658,600.031464 42.4228103,600.61782 41.7020083,600.61782 Z M35.999648,601.81024 C34.2412854,601.81024 32.8095361,603.241285 32.8095361,604.999648 C32.8095361,606.758715 34.2412854,608.190464 35.999648,608.190464 C37.7587146,608.190464 39.18976,606.758715 39.18976,604.999648 C39.18976,603.241285 37.7587146,601.81024 35.999648,601.81024 Z M41.3141549,596.609062 L30.6858451,596.609062 C28.9894264,596.609062 27.6090624,597.989426 27.6090624,599.685845 L27.6090624,610.314155 C27.6090624,612.010574 28.9894264,613.390938 30.6858451,613.390938 L41.3141549,613.390938 C43.0105736,613.390938 44.3909376,612.010574 44.3909376,610.314155 L44.3909376,599.685845 C44.3909376,597.989426 43.0105736,596.609062 41.3141549,596.609062 Z M35.999648,610.524623 C32.9538373,610.524623 30.4753766,608.046163 30.4753766,604.999648 C30.4753766,601.953837 32.9538373,599.475377 35.999648,599.475377 C39.0461627,599.475377 41.5246234,601.953837 41.5246234,604.999648 C41.5246234,608.046163 39.0461627,610.524623 35.999648,610.524623 Z M41.7020083,600.61782 C40.9812063,600.61782 40.3948508,600.031464 40.3948508,599.310662 C40.3948508,598.58986 40.9812063,598.003505 41.7020083,598.003505 C42.4228103,598.003505 43.0091658,598.58986 43.0091658,599.310662 C43.0091658,600.031464 42.4228103,600.61782 41.7020083,600.61782 Z M35.999648,601.81024 C34.2412854,601.81024 32.8095361,603.241285 32.8095361,604.999648 C32.8095361,606.758715 34.2412854,608.190464 35.999648,608.190464 C37.7587146,608.190464 39.18976,606.758715 39.18976,604.999648 C39.18976,603.241285 37.7587146,601.81024 35.999648,601.81024 Z M46.7250971,610.314155 C46.7250971,613.298022 44.2980217,615.725097 41.3141549,615.725097 L30.6858451,615.725097 C27.7019783,615.725097 25.2749029,613.298022 25.2749029,610.314155 L25.2749029,599.685845 C25.2749029,596.701978 27.7019783,594.274903 30.6858451,594.274903 L41.3141549,594.274903 C44.2980217,594.274903 46.7250971,596.701978 46.7250971,599.685845 L46.7250971,610.314155 Z M41.3141549,596.609062 L30.6858451,596.609062 C28.9894264,596.609062 27.6090624,597.989426 27.6090624,599.685845 L27.6090624,610.314155 C27.6090624,612.010574 28.9894264,613.390938 30.6858451,613.390938 L41.3141549,613.390938 C43.0105736,613.390938 44.3909376,612.010574 44.3909376,610.314155 L44.3909376,599.685845 C44.3909376,597.989426 43.0105736,596.609062 41.3141549,596.609062 Z M35.999648,610.524623 C32.9538373,610.524623 30.4753766,608.046163 30.4753766,604.999648 C30.4753766,601.953837 32.9538373,599.475377 35.999648,599.475377 C39.0461627,599.475377 41.5246234,601.953837 41.5246234,604.999648 C41.5246234,608.046163 39.0461627,610.524623 35.999648,610.524623 Z M41.7020083,600.61782 C40.9812063,600.61782 40.3948508,600.031464 40.3948508,599.310662 C40.3948508,598.58986 40.9812063,598.003505 41.7020083,598.003505 C42.4228103,598.003505 43.0091658,598.58986 43.0091658,599.310662 C43.0091658,600.031464 42.4228103,600.61782 41.7020083,600.61782 Z M35.999648,601.81024 C34.2412854,601.81024 32.8095361,603.241285 32.8095361,604.999648 C32.8095361,606.758715 34.2412854,608.190464 35.999648,608.190464 C37.7587146,608.190464 39.18976,606.758715 39.18976,604.999648 C39.18976,603.241285 37.7587146,601.81024 35.999648,601.81024 Z M35.999648,601.81024 C34.2412854,601.81024 32.8095361,603.241285 32.8095361,604.999648 C32.8095361,606.758715 34.2412854,608.190464 35.999648,608.190464 C37.7587146,608.190464 39.18976,606.758715 39.18976,604.999648 C39.18976,603.241285 37.7587146,601.81024 35.999648,601.81024 Z M35.999648,601.81024 C34.2412854,601.81024 32.8095361,603.241285 32.8095361,604.999648 C32.8095361,606.758715 34.2412854,608.190464 35.999648,608.190464 C37.7587146,608.190464 39.18976,606.758715 39.18976,604.999648 C39.18976,603.241285 37.7587146,601.81024 35.999648,601.81024 Z M41.3141549,596.609062 L30.6858451,596.609062 C28.9894264,596.609062 27.6090624,597.989426 27.6090624,599.685845 L27.6090624,610.314155 C27.6090624,612.010574 28.9894264,613.390938 30.6858451,613.390938 L41.3141549,613.390938 C43.0105736,613.390938 44.3909376,612.010574 44.3909376,610.314155 L44.3909376,599.685845 C44.3909376,597.989426 43.0105736,596.609062 41.3141549,596.609062 Z M35.999648,610.524623 C32.9538373,610.524623 30.4753766,608.046163 30.4753766,604.999648 C30.4753766,601.953837 32.9538373,599.475377 35.999648,599.475377 C39.0461627,599.475377 41.5246234,601.953837 41.5246234,604.999648 C41.5246234,608.046163 39.0461627,610.524623 35.999648,610.524623 Z M41.7020083,600.61782 C40.9812063,600.61782 40.3948508,600.031464 40.3948508,599.310662 C40.3948508,598.58986 40.9812063,598.003505 41.7020083,598.003505 C42.4228103,598.003505 43.0091658,598.58986 43.0091658,599.310662 C43.0091658,600.031464 42.4228103,600.61782 41.7020083,600.61782 Z M35.999648,601.81024 C34.2412854,601.81024 32.8095361,603.241285 32.8095361,604.999648 C32.8095361,606.758715 34.2412854,608.190464 35.999648,608.190464 C37.7587146,608.190464 39.18976,606.758715 39.18976,604.999648 C39.18976,603.241285 37.7587146,601.81024 35.999648,601.81024 Z M35.999648,601.81024 C34.2412854,601.81024 32.8095361,603.241285 32.8095361,604.999648 C32.8095361,606.758715 34.2412854,608.190464 35.999648,608.190464 C37.7587146,608.190464 39.18976,606.758715 39.18976,604.999648 C39.18976,603.241285 37.7587146,601.81024 35.999648,601.81024 Z M35.999648,601.81024 C34.2412854,601.81024 32.8095361,603.241285 32.8095361,604.999648 C32.8095361,606.758715 34.2412854,608.190464 35.999648,608.190464 C37.7587146,608.190464 39.18976,606.758715 39.18976,604.999648 C39.18976,603.241285 37.7587146,601.81024 35.999648,601.81024 Z M41.3141549,596.609062 L30.6858451,596.609062 C28.9894264,596.609062 27.6090624,597.989426 27.6090624,599.685845 L27.6090624,610.314155 C27.6090624,612.010574 28.9894264,613.390938 30.6858451,613.390938 L41.3141549,613.390938 C43.0105736,613.390938 44.3909376,612.010574 44.3909376,610.314155 L44.3909376,599.685845 C44.3909376,597.989426 43.0105736,596.609062 41.3141549,596.609062 Z M35.999648,610.524623 C32.9538373,610.524623 30.4753766,608.046163 30.4753766,604.999648 C30.4753766,601.953837 32.9538373,599.475377 35.999648,599.475377 C39.0461627,599.475377 41.5246234,601.953837 41.5246234,604.999648 C41.5246234,608.046163 39.0461627,610.524623 35.999648,610.524623 Z M41.7020083,600.61782 C40.9812063,600.61782 40.3948508,600.031464 40.3948508,599.310662 C40.3948508,598.58986 40.9812063,598.003505 41.7020083,598.003505 C42.4228103,598.003505 43.0091658,598.58986 43.0091658,599.310662 C43.0091658,600.031464 42.4228103,600.61782 41.7020083,600.61782 Z" id="instagram"></path>
        </g>
    </g>
</svg>