<svg xmlns="http://www.w3.org/2000/svg" width="40" height="40" viewBox="0 0 40 40"><g><g><path fill="#25d366" d="M34.172 5.813C30.412 2.066 25.412.003 20.083 0 9.106 0 .171 8.891.167 19.82a19.714 19.714 0 0 0 2.658 9.909L0 40l10.558-2.756a19.975 19.975 0 0 0 9.518 2.412h.008c10.976 0 19.912-8.892 19.916-19.82.002-5.297-2.068-10.277-5.828-14.023"/></g><g><path fill="#fff" d="M30.403 25.207c-.57-.293-3.371-1.71-3.893-1.906-.523-.195-.902-.293-1.282.293-.38.587-1.472 1.906-1.804 2.297-.333.391-.665.44-1.235.147-.57-.293-2.406-.912-4.582-2.908-1.694-1.553-2.837-3.472-3.17-4.058-.332-.587-.035-.904.25-1.196.257-.262.57-.684.855-1.026.285-.342.38-.587.57-.977.19-.391.095-.734-.048-1.027-.142-.293-1.282-3.177-1.756-4.35-.463-1.142-.933-.987-1.282-1.005-.332-.017-.713-.021-1.092-.021-.38 0-.998.147-1.52.733-.522.587-1.994 2.004-1.994 4.887 0 2.884 2.042 5.67 2.327 6.06.284.392 4.017 6.309 9.733 8.847 1.36.603 2.42.964 3.248 1.234 1.365.446 2.607.383 3.589.232 1.094-.168 3.37-1.417 3.846-2.786.474-1.368.474-2.541.332-2.786-.142-.244-.522-.39-1.092-.684"/></g></g></svg>