<svg xmlns="http://www.w3.org/2000/svg" width="120" height="20" viewBox="0 0 120 20"><defs><linearGradient id="cq6ha" x1="0" x2="120" y1="10" y2="10" gradientUnits="userSpaceOnUse"><stop offset="0" stop-color="#ca11aa"/><stop offset="1" stop-color="#481172"/></linearGradient></defs><g><g><path fill="url(#cq6ha)" d="M0 18h120v2H0zM111.727 1.058C112.58.342 113.62 0 114.835 0c2.192 0 3.88 1.12 4.763 2.971l-1.893 1.073c-.568-1.244-1.53-1.882-2.87-1.882-1.31 0-2.146.653-2.146 1.68 0 .996.663 1.462 2.76 2.1.521.171.9.295 1.136.389.253.078.584.218 1.01.389.442.17.789.373.994.544.681.527 1.405 1.37 1.411 2.541v.028c0 .066-.003.133-.008.2 0 1.214-.441 2.194-1.34 2.91-.884.715-2.05 1.057-3.502 1.057-2.65-.016-4.574-1.26-5.284-3.329l1.94-1.12c.552 1.525 1.672 2.271 3.391 2.271 1.704 0 2.54-.715 2.54-1.773 0-.56-.237-.965-.678-1.245-.442-.295-1.262-.622-2.43-.964-1.309-.389-1.955-.638-2.87-1.229-.883-.622-1.325-1.51-1.325-2.722 0-1.198.426-2.131 1.293-2.831zM18.73.24l-3.665 13.5-2.785-.002L9.354 3.655 6.425 13.742l-2.762.002L0 .242h2.403l2.814 10.37L8.233.241h2.24l3.026 10.426L16.326.244zm69.953 0c1.231 0 2.272.421 3.108 1.278.851.825 1.294 1.853 1.294 3.067 0 1.713-1.089 3.286-2.713 3.909l3.107 5.247h-2.492l-2.887-4.92h-2.65v4.92h-2.24V.242zM85.45 6.845h3.218c1.199 0 2.145-.996 2.145-2.258 0-1.246-.962-2.258-2.145-2.258h-3.218zm9.67-6.6h2.24v13.498h-2.24zm13.09.005v2.116h-5.961v3.502h5.473v2.101h-5.473v3.658h6.057v2.116h-8.297V.25zm-31.514 0c1.23 0 2.271.42 3.108 1.276.85.825 1.293 1.852 1.293 3.066 0 1.712-1.088 3.284-2.713 3.906l3.107 5.245h-2.476l-2.902-4.918h-2.65v4.918h-2.24V.25zm-3.233 6.599h3.218c1.198 0 2.144-.996 2.144-2.257 0-1.245-.962-2.257-2.144-2.257h-3.218zm-4.353-6.6v2.117h-5.963v3.502h5.474v2.101h-5.474v3.658h6.057v2.116h-8.296V.25zm-14.874 0c1.12 0 2.066.374 2.839 1.075.789.715 1.167 1.603 1.167 2.661 0 1.183-.474 2.086-1.388 2.755 1.199.622 1.924 1.743 1.924 3.144 0 1.105-.394 2.023-1.198 2.755-.805.73-1.751 1.104-2.919 1.104H48.81V.25zm-3.17 5.635h3.185c.994 0 1.75-.778 1.75-1.775 0-.996-.756-1.774-1.75-1.774h-3.186zm0 5.79h3.611v-.016c1.041 0 1.862-.825 1.862-1.883 0-1.059-.82-1.884-1.862-1.884h-3.612zM40.164.249v.015c1.877 0 3.439.654 4.669 1.945C46.08 3.499 46.71 5.102 46.71 7c0 1.882-.631 3.484-1.877 4.791-1.23 1.291-2.792 1.945-4.67 1.945h-5.378V.249zm-3.123 11.386h3.123c1.293 0 2.35-.435 3.139-1.306.82-.871 1.23-1.991 1.23-3.314 0-1.353-.41-2.442-1.23-3.313-.804-.871-1.861-1.306-3.14-1.306h-3.122zM27.562.25v11.37h5.568v2.117h-7.807V.249zm-7.176 0h2.287v13.487h-2.287z"/></g></g></svg>